<?xml version="1.0" encoding="UTF-8"?>
<svg xmlns="http://www.w3.org/2000/svg" xmlns:xlink="http://www.w3.org/1999/xlink" width="16px" height="16px" viewBox="0 0 16 16" version="1.1">
<g id="surface1">
<path style=" stroke:none;fill-rule:nonzero;fill:rgb(83.137255%,7.843137%,26.27451%);fill-opacity:1;" d="M 5.847656 0.277344 C 2.863281 1.199219 0.675781 3.660156 0.152344 6.675781 C -0.277344 9.382812 1.601562 13.078125 4.09375 14.339844 C 5.355469 15.015625 5.539062 14.585938 4.371094 13.660156 C 3.539062 12.984375 3.382812 12.675781 3.382812 11.539062 C 3.382812 10.738281 3.199219 10.09375 2.921875 9.847656 C 2.371094 9.382812 2.308594 8.277344 2.832031 7.753906 C 3.015625 7.570312 3.230469 6.953125 3.292969 6.398438 C 3.507812 4.339844 5.691406 2.460938 7.847656 2.460938 C 10 2.460938 12.183594 4.339844 12.398438 6.398438 C 12.460938 6.953125 12.675781 7.570312 12.863281 7.753906 C 13.382812 8.277344 13.324219 9.382812 12.769531 9.847656 C 12.492188 10.09375 12.308594 10.738281 12.308594 11.539062 C 12.308594 12.675781 12.152344 12.984375 11.324219 13.660156 C 9.90625 14.738281 10.492188 15.046875 12 14 C 16.03125 11.199219 16.492188 5.660156 13.015625 2.246094 C 11.078125 0.398438 8.152344 -0.398438 5.847656 0.277344 Z M 5.847656 0.277344 "/>
<path style=" stroke:none;fill-rule:nonzero;fill:rgb(83.137255%,7.843137%,26.27451%);fill-opacity:1;" d="M 6.246094 3.847656 C 5.691406 4.09375 5.230469 4.398438 5.230469 4.585938 C 5.230469 4.921875 6.890625 5.539062 7.847656 5.539062 C 8.800781 5.539062 10.460938 4.921875 10.460938 4.585938 C 10.460938 4.214844 8.554688 3.382812 7.785156 3.382812 C 7.476562 3.414062 6.769531 3.601562 6.246094 3.847656 Z M 6.246094 3.847656 "/>
<path style=" stroke:none;fill-rule:nonzero;fill:rgb(83.137255%,7.843137%,26.27451%);fill-opacity:1;" d="M 4.492188 5.753906 C 4.398438 5.875 4.308594 6.277344 4.308594 6.675781 C 4.308594 7.382812 4.339844 7.382812 7.847656 7.382812 C 11.355469 7.382812 11.382812 7.382812 11.382812 6.675781 C 11.382812 5.628906 11.109375 5.507812 10.125 6 C 9.015625 6.585938 6.675781 6.585938 5.570312 6 C 5.078125 5.753906 4.617188 5.660156 4.492188 5.753906 Z M 4.492188 5.753906 "/>
<path style=" stroke:none;fill-rule:nonzero;fill:rgb(83.137255%,7.843137%,26.27451%);fill-opacity:1;" d="M 3.601562 8.492188 C 3.109375 9.015625 3.9375 9.230469 6.339844 9.230469 L 8.921875 9.230469 L 8.921875 10.308594 C 8.921875 10.890625 9.078125 11.382812 9.261719 11.382812 C 9.445312 11.382812 9.570312 11.078125 9.539062 10.675781 C 9.414062 9.414062 9.539062 9.261719 10.769531 9.167969 C 11.445312 9.109375 12 8.921875 12 8.769531 C 12 8.429688 3.9375 8.152344 3.601562 8.492188 Z M 3.601562 8.492188 "/>
<path style=" stroke:none;fill-rule:nonzero;fill:rgb(83.137255%,7.843137%,26.27451%);fill-opacity:1;" d="M 4.308594 11.199219 C 4.308594 12.890625 4.890625 13.230469 7.847656 13.230469 C 10.800781 13.230469 11.382812 12.890625 11.382812 11.167969 C 11.382812 10 10.675781 9.847656 10.523438 11.015625 C 10.277344 12.644531 8.125 12.707031 7.785156 11.078125 C 7.628906 10.183594 7.539062 10.152344 5.96875 10.152344 L 4.308594 10.152344 Z M 4.308594 11.199219 "/>
<path style=" stroke:none;fill-rule:nonzero;fill:rgb(83.137255%,7.843137%,26.27451%);fill-opacity:1;" d="M 6.214844 14.675781 C 6.398438 15.660156 9.539062 15.570312 9.539062 14.617188 C 9.539062 14.277344 9.136719 14.152344 7.816406 14.152344 C 6.371094 14.152344 6.125 14.246094 6.214844 14.675781 Z M 6.214844 14.675781 "/>
</g>
</svg>
