<svg aria-hidden="true" style="position: absolute; width: 0; height: 0; overflow: hidden;" version="1.1"
    xmlns="http://www.w3.org/2000/svg" xmlns:xlink="http://www.w3.org/1999/xlink">
    <defs>
       <symbol id="telegram" viewBox="0 0 40 32">
<path fill="#fff" d="M16.205 20.751l-0.635 8.339c0.909 0 1.302-0.364 1.774-0.802l4.261-3.801 8.829 6.035c1.619 0.842 2.76 0.399 3.197-1.39l5.797-25.346c0.514-2.234-0.866-3.108-2.443-2.56l-34.065 12.172c-2.325 0.842-2.29 2.052-0.395 2.6l8.709 2.528 20.229-11.814c0.952-0.588 1.818-0.263 1.106 0.326l-16.364 13.713z"></path>
</symbol>
        <symbol id="github" viewBox="0 0 32 32">
<path fill="#fff" d="M16 0.941c-8.271 0-15.059 6.788-15.059 15.059 0 7.058 4.953 13.47 11.529 15.059v-4.982c-0.652 0.143-1.251 0.147-1.915-0.049-0.89-0.263-1.613-0.856-2.15-1.76-0.342-0.577-0.949-1.203-1.581-1.157l-0.155-1.758c1.368-0.117 2.551 0.833 3.254 2.013 0.312 0.525 0.671 0.832 1.132 0.969 0.446 0.131 0.924 0.068 1.481-0.129 0.14-1.116 0.651-1.534 1.037-2.122v-0.001c-3.922-0.585-5.486-2.666-6.106-4.308-0.822-2.181-0.381-4.905 1.073-6.627 0.028-0.034 0.079-0.121 0.060-0.183-0.667-2.014 0.146-3.679 0.176-3.856 0.769 0.228 0.894-0.229 3.342 1.258l0.423 0.254c0.177 0.105 0.121 0.045 0.298 0.032 1.022-0.278 2.099-0.431 3.16-0.445 1.069 0.014 2.14 0.167 3.204 0.456l0.137 0.014c-0.012-0.002 0.037-0.009 0.12-0.058 3.057-1.852 2.947-1.247 3.767-1.513 0.030 0.177 0.831 1.87 0.172 3.858-0.089 0.274 2.65 2.782 1.132 6.809-0.62 1.643-2.184 3.724-6.106 4.309v0.001c0.503 0.766 1.107 1.174 1.104 2.755v6.219c6.577-1.589 11.529-8.001 11.529-15.059 0-8.271-6.787-15.059-15.059-15.059v0z"></path>
</symbol>
       <symbol id="facebook" viewBox="0 0 16 32">
<path fill="#fff"  d="M14.266 15.97h-4.176v15.39h-6.327v-15.39h-3.009v-5.409h3.009v-3.5c0-2.503 1.182-6.422 6.384-6.422l4.687 0.020v5.25h-3.401c-0.558 0-1.342 0.28-1.342 1.474v3.183h4.729l-0.553 5.403z"></path>
</symbol>
        <symbol id="home" viewBox="0 0 32 32">
            <path
                d="M30.129 15.447c0.553-0.6 0.5-1.52-0.119-2.054l-13.636-11.77c-0.619-0.534-1.611-0.523-2.217 0.025l-13.682 12.372c-0.606 0.548-0.636 1.466-0.066 2.051l0.343 0.352c0.569 0.584 1.489 0.654 2.053 0.155l1.023-0.903v13.224c0 0.811 0.667 1.468 1.488 1.468h5.333c0.822 0 1.488-0.657 1.488-1.468v-9.252h6.803v9.252c-0.012 0.811 0.576 1.468 1.398 1.468h5.652c0.822 0 1.488-0.657 1.488-1.468v-13.038s0.282 0.244 0.631 0.546c0.348 0.302 1.078 0.060 1.631-0.541l0.388-0.42z">
            </path>
        </symbol>
        <symbol id="ellipse" viewBox="0 0 32 32">
            <path
                d="M30.511 16c0 8.157-6.612 14.769-14.769 14.769s-14.769-6.612-14.769-14.769c0-8.157 6.612-14.769 14.769-14.769s14.769 6.612 14.769 14.769z">
            </path>
        </symbol>
        <symbol id="iclose" viewBox="0 0 32 32">
            <path
                d="M32 3.223l-3.223-3.223-12.777 12.777-12.777-12.777-3.223 3.223 12.777 12.777-12.777 12.777 3.223 3.223 12.777-12.777 12.777 12.777 3.223-3.223-12.777-12.777 12.777-12.777z">
            </path>
        </symbol>
        <symbol id="icon-burger" viewBox="0 0 46 32">
            <path stroke="#d41443" style="stroke: var(--color1, #d41443)" stroke-linejoin="miter" stroke-linecap="butt"
                stroke-miterlimit="4" stroke-width="2.2857" d="M0 2.286h45.714"></path>
            <path stroke="#d41443" style="stroke: var(--color1, #d41443)" stroke-linejoin="miter" stroke-linecap="butt"
                stroke-miterlimit="4" stroke-width="2.2857" d="M0 16h45.714"></path>
            <path stroke="#d41443" style="stroke: var(--color1, #d41443)" stroke-linejoin="miter" stroke-linecap="butt"
                stroke-miterlimit="4" stroke-width="2.2857" d="M0 29.714h45.714"></path>
        </symbol>
    </defs>
    <symbol id="ivector" viewBox="0 0 26 32">
<path d="M1.6 1.5c-2.2 2.2-1.3 3.4 6.4 9 3.9 2.7 7 5.2 7 5.5s-1.9 1.8-4.2 3.5c-8.6 6-10.9 8.5-9.8 10.6 0.6 1 1.5 1.9 2.1 1.9 2.1 0 19.9-14.3 19.9-16 0-1.1-3.8-4.6-9.5-8.9-5.2-3.9-9.7-7.1-9.9-7.1-0.3 0-1.1 0.7-2 1.5z"></path>
</symbol>
</svg>